<svg id="Слой_1" data-name="Слой 1" xmlns="http://www.w3.org/2000/svg" viewBox="0 0 100 100"><defs><style>.cls-1{fill:#0153b8;}</style></defs><title>ic_100x100-shutle</title><path class="cls-1" d="M84,38a4,4,0,0,0,4-4V14a4,4,0,0,0-4-4H64a4,4,0,0,0-4,4V34a4,4,0,0,0,4,4h9v4H17a5,5,0,0,0-5,5V75a5,5,0,0,0,5,5h4.15a7.5,7.5,0,0,0,14.7,0h28.3a7.5,7.5,0,0,0,14.7,0H83a5,5,0,0,0,5-5V63.22a3.6,3.6,0,0,0-.57-1.94L76,42V38ZM28.5,83A4.5,4.5,0,1,1,33,78.5,4.51,4.51,0,0,1,28.5,83Zm43,0A4.5,4.5,0,1,1,76,78.5,4.51,4.51,0,0,1,71.5,83ZM84.85,62.81l0,0,0,0a.56.56,0,0,1,.09.31V71H82.5a1.5,1.5,0,0,0,0,3H85v1a2,2,0,0,1-2,2H78.85a7.5,7.5,0,0,0-14.7,0H35.85a7.5,7.5,0,0,0-14.7,0H17a2,2,0,0,1-2-2V74h2.5a1.5,1.5,0,0,0,0-3H15V47a2,2,0,0,1,2-2H74.29ZM64,35a1,1,0,0,1-1-1V14a1,1,0,0,1,1-1H84a1,1,0,0,1,1,1V34a1,1,0,0,1-1,1Z"/><path class="cls-1" d="M69.5,63h-3a1.5,1.5,0,0,0,0,3h3a1.5,1.5,0,0,0,0-3Z"/><path class="cls-1" d="M45.5,63a1.5,1.5,0,0,0,0,3h3a1.5,1.5,0,0,0,0-3Z"/><path class="cls-1" d="M28.5,63h-3a1.5,1.5,0,0,0,0,3h3a1.5,1.5,0,0,0,0-3Z"/><path class="cls-1" d="M70.32,47H64a3,3,0,0,0-3,3v7a3,3,0,0,0,3,3H74.63a3,3,0,0,0,2.56-4.57l-4.31-7A3,3,0,0,0,70.32,47ZM64,57V50h6.32l4.31,7Z"/><path class="cls-1" d="M43,60h9a3,3,0,0,0,3-3V50a3,3,0,0,0-3-3H43a3,3,0,0,0-3,3v7A3,3,0,0,0,43,60Zm0-10h9v7H43Z"/><path class="cls-1" d="M32,47H23a3,3,0,0,0-3,3v7a3,3,0,0,0,3,3h9a3,3,0,0,0,3-3V50A3,3,0,0,0,32,47Zm0,10H23V50h9Z"/><path class="cls-1" d="M61.5,71h-24a1.5,1.5,0,0,0,0,3h24a1.5,1.5,0,0,0,0-3Z"/><path class="cls-1" d="M82.83,24.25,76,20.31V16.5a1.5,1.5,0,0,0-3,0v4.12l-6.28,3.63a1.5,1.5,0,0,0,1.5,2.6L73,24.09V29h-.5a1.5,1.5,0,0,0,0,3h4a1.5,1.5,0,0,0,0-3H76V23.77l5.33,3.08a1.5,1.5,0,1,0,1.5-2.6Z"/></svg>