<svg id="Слой_1" data-name="Слой 1" xmlns="http://www.w3.org/2000/svg" viewBox="0 0 100 100"><defs><style>.cls-1{fill:#0153b8;}</style></defs><title>ic_100x100-parking</title><path class="cls-1" d="M26.5,83H22V41h8a5,5,0,0,0,5-5V17a5,5,0,0,0-5-5H11a5,5,0,0,0-5,5V36a5,5,0,0,0,5,5h8V83H13.5a1.5,1.5,0,0,0,0,3h13a1.5,1.5,0,0,0,0-3ZM19,38H11a2,2,0,0,1-2-2V17a2,2,0,0,1,2-2H30a2,2,0,0,1,2,2V36a2,2,0,0,1-2,2H19Z"/><path class="cls-1" d="M26,25.92V24.08A4.08,4.08,0,0,0,21.92,20H15V31.5a1.5,1.5,0,0,0,3,0V30h3.92A4.08,4.08,0,0,0,26,25.92Zm-3,0A1.08,1.08,0,0,1,21.92,27H18V23h3.92A1.08,1.08,0,0,1,23,24.08Z"/><path class="cls-1" d="M41,62H40a4,4,0,0,0,0,8h1a4,4,0,0,0,0-8Zm0,5H40a1,1,0,0,1,0-2h1a1,1,0,0,1,0,2Z"/><path class="cls-1" d="M82,62H81a4,4,0,0,0,0,8h1a4,4,0,0,0,0-8Zm0,5H81a1,1,0,0,1,0-2h1a1,1,0,0,1,0,2Z"/><path class="cls-1" d="M73,62H50a3,3,0,0,0-3,3v1a4,4,0,0,0,4,4H72a4,4,0,0,0,4-4V65A3,3,0,0,0,73,62Zm0,4a1,1,0,0,1-1,1H51a1,1,0,0,1-1-1V65H73Z"/><path class="cls-1" d="M92,54H90a4,4,0,0,0-3.41,1.93l-3.36-8.72A5,5,0,0,0,78.57,44H43.43a5,5,0,0,0-4.66,3.21l-3.36,8.72A4,4,0,0,0,32,54H30a4,4,0,0,0,0,8h1V75a5,5,0,0,0,2,4v5a2,2,0,0,0,2,2h7a2,2,0,0,0,2-2V80H78v4a2,2,0,0,0,2,2h7a2,2,0,0,0,2-2V79a5,5,0,0,0,2-4V62h1a4,4,0,0,0,0-8ZM32,59H30a1,1,0,0,1,0-2h2a1,1,0,0,1,0,2Zm9,24H36V80h5Zm9-6a2,2,0,0,1,2-2H71a2,2,0,0,1,2,2Zm36,6H81V80h5Zm2-8a2,2,0,0,1-2,2H76a5,5,0,0,0-5-5H52a5,5,0,0,0-5,5H36a2,2,0,0,1-2-2V62.24l3.12-3.12.15-.14.23,0h27a1.5,1.5,0,0,0,0-3H38.6l3-7.72A2,2,0,0,1,43.43,47H78.57a2,2,0,0,1,1.86,1.28l3,7.72H75.5a1.5,1.5,0,0,0,0,3h9l.23,0,.15.14L88,62.24Zm4-16H90a1,1,0,0,1,0-2h2a1,1,0,0,1,0,2Z"/><path class="cls-1" d="M69.5,59h1a1.5,1.5,0,0,0,0-3h-1a1.5,1.5,0,0,0,0,3Z"/></svg>