<svg id="Слой_1" data-name="Слой 1" xmlns="http://www.w3.org/2000/svg" viewBox="0 0 100 100"><defs><style>.cls-1{fill:#0153b8;}</style></defs><title>ic_100x100-tablet</title><path class="cls-1" d="M80,33v3a2,2,0,0,1,2,2v3H52.91V38.1a2,2,0,0,1,2-2L80,36V33h0l-7,0V20a5,5,0,0,0-5-5h0l-48.1.09a5,5,0,0,0-5,5L15,80a5,5,0,0,0,5,5H80a5,5,0,0,0,5-5V38A5,5,0,0,0,80,33ZM17.9,20.1a2,2,0,0,1,2-2L68,18a2,2,0,0,1,2,2v3H17.91Zm0,5.9H21V53.5a1.5,1.5,0,0,0,3,0V26H70v7l-15.11,0a5,5,0,0,0-5,5L50,74H18ZM18,80V77H50v3a4.89,4.89,0,0,0,.42,2H20A2,2,0,0,1,18,80Zm64,0a2,2,0,0,1-2,2H55a2,2,0,0,1-2-2l-.07-36H82Z"/><circle class="cls-1" cx="22.5" cy="58.5" r="1.5"/><circle class="cls-1" cx="67.5" cy="75.5" r="1.5"/></svg>