<svg id="Слой_1" data-name="Слой 1" xmlns="http://www.w3.org/2000/svg" viewBox="0 0 100 100"><defs><style>.cls-1{fill:#0153b8;fill-rule:evenodd;}</style></defs><title>ic_100x100-cam</title><path class="cls-1" d="M37.69,37a1,1,0,0,1,.59,1.29,1,1,0,0,1-.94.65.82.82,0,0,1-.34-.06l-1.88-.68a1,1,0,1,1,.69-1.88Zm47.43,7.8a2,2,0,0,0,.88-.64,1.82,1.82,0,0,0-.93-.57L34.53,25.19A3,3,0,0,0,30.68,27l-1,2.82h0l-.35.94a3,3,0,0,0,1.8,3.84l.94.34a1,1,0,1,1-.69,1.88l-.94-.34a5,5,0,0,1-2.47-2l-1.71,4.7A3,3,0,0,0,28,43.05l43,15.64A3,3,0,0,0,74.9,56.9l2.27-6.24a12.37,12.37,0,0,1-4,.63,10.39,10.39,0,0,1-3.51-.55L40.76,40.23a1,1,0,0,1,.68-1.88L70.37,48.86A10,10,0,0,0,77,48.57l1.5-.7h0l1.28-.59h0Zm-3.39,5-1.49-.54-.53.25-2.59,7.13,1.88.68ZM48.14,55.24a4,4,0,0,0,3.09-1.63L44,51a4,4,0,0,0,1.06,3,.68.68,0,0,1,.12.12,4.21,4.21,0,0,0,1.44.91,4,4,0,0,0,1.44.24Zm-4.24,9.7,2.85-7.83a7.32,7.32,0,0,1-.8-.23,6.1,6.1,0,0,1-1.06-.51L42,64.26a3,3,0,0,1-2.83,2H30v2h9.19A5,5,0,0,0,43.9,64.94ZM28,73.24v-12a1,1,0,0,0-1-1H26v14h1A1,1,0,0,0,28,73.24ZM88,44.05c0,.58-.21,1.69-2,2.55l-3.21,1.49a2,2,0,0,1,.85,2.4L80.88,58a2,2,0,0,1-1,1.13,2.06,2.06,0,0,1-.84.19,2.1,2.1,0,0,1-.69-.13l-2-.72a5,5,0,0,1-4.27,2.39,5.08,5.08,0,0,1-1.7-.3L53.15,54.31a6,6,0,0,1-4.3,2.88l-3.07,8.44a7,7,0,0,1-6.59,4.61H30v3a3,3,0,0,1-3,3H25a1,1,0,0,1-1-1v-16a1,1,0,0,1,1-1h2a3,3,0,0,1,3,3v3h9.19a1,1,0,0,0,1-.67L43.28,55a5.94,5.94,0,0,1-1.2-4.67L27.35,44.93a5,5,0,0,1-3-6.41l3.07-8.46h0L28.8,26.3a5,5,0,0,1,6.41-3L85.75,41.69C87.65,42.38,88,43.47,88,44.05Z"/></svg>