<svg id="Слой_1" data-name="Слой 1" xmlns="http://www.w3.org/2000/svg" viewBox="0 0 100 100"><defs><style>.cls-1{fill:#0153b8;fill-rule:evenodd;}</style></defs><title>ic_100x100-24h</title><path class="cls-1" d="M46.06,74.91a1.27,1.27,0,0,1,1.48,1,1.34,1.34,0,0,1-1,1.58,6.54,6.54,0,0,1-1.3.14c-2.85,0-5.43-1.92-6.77-2.91a1.39,1.39,0,0,1-.32-1.85,1.21,1.21,0,0,1,1.75-.34C41.93,74.05,44.05,75.36,46.06,74.91ZM36.8,70.85l0,.05a1,1,0,0,1-1,1.43,1.05,1.05,0,0,1-1-.65l0-.05a1,1,0,0,1,.58-1.35A1.06,1.06,0,0,1,36.8,70.85ZM72.19,30.08l0,0a1,1,0,0,1,.59-1.35,1.05,1.05,0,0,1,1.37.57l0,.05a1,1,0,0,1-.58,1.36,1.12,1.12,0,0,1-.4.07A1.05,1.05,0,0,1,72.19,30.08ZM60,58.54a1.07,1.07,0,0,1,1.38.57l0,.07a1,1,0,0,1-.58,1.34.91.91,0,0,1-.39.08,1,1,0,0,1-1-.65l0-.06A1,1,0,0,1,60,58.54ZM53,60l0-.06a1,1,0,0,1,.58-1.35,1.07,1.07,0,0,1,1.38.57l0,.07a1,1,0,0,1-.58,1.34.91.91,0,0,1-.39.08A1,1,0,0,1,53,60Zm-4.78-1.41a1.06,1.06,0,0,1,1.37.57l0,.07A1,1,0,0,1,49,60.52a1,1,0,0,1-.4.08,1,1,0,0,1-1-.65l0-.06A1,1,0,0,1,48.22,58.54ZM61.55,55a.75.75,0,0,1-.38-.66V51H54.88a.85.85,0,0,1-.67-.28,1.14,1.14,0,0,1-.1-1.28l6.33-12.64a1.17,1.17,0,0,1,1.08-.69,1.37,1.37,0,0,1,.78.26.86.86,0,0,1,.39.71,1,1,0,0,1-.11.43L57.05,48.59h4.12V44.4a.75.75,0,0,1,.38-.66,1.66,1.66,0,0,1,.82-.2,1.69,1.69,0,0,1,.82.2.75.75,0,0,1,.38.66v4.19h1.24a.75.75,0,0,1,.66.38,1.45,1.45,0,0,1,.23.81,1.36,1.36,0,0,1-.26.8.76.76,0,0,1-.63.38H63.57v3.42a.75.75,0,0,1-.38.66,1.58,1.58,0,0,1-1.64,0Zm-7.84-.12a.82.82,0,0,1-.66.35H43.39a1.43,1.43,0,0,1-.77-.25.76.76,0,0,1-.39-.66V51.84a3.79,3.79,0,0,1,.94-2.37,10.93,10.93,0,0,1,2.25-2.07l2.65-1.87a10.88,10.88,0,0,0,2.27-2,3.53,3.53,0,0,0,.91-2.23,3,3,0,0,0-.83-2.1,3.08,3.08,0,0,0-2.38-.9,3.2,3.2,0,0,0-2.15.71,2.55,2.55,0,0,0-.82,2,.85.85,0,0,1-.37.69,1.44,1.44,0,0,1-1,.3c-.53,0-1.17-.25-1.17-1.4a4.05,4.05,0,0,1,1.59-3.28,6.52,6.52,0,0,1,8,.19A4.73,4.73,0,0,1,53.8,41.2a5.13,5.13,0,0,1-.69,2.56,7.26,7.26,0,0,1-1.69,2.06c-.66.56-1.4,1.12-2.18,1.67L47.05,49a7.6,7.6,0,0,0-1.63,1.41,2.25,2.25,0,0,0-.65,1.46v1.2H53a.82.82,0,0,1,.66.33,1.24,1.24,0,0,1,.26.78A1.22,1.22,0,0,1,53.71,54.92Zm-2.29,20a7.54,7.54,0,0,0,.44-1.11,3.57,3.57,0,0,0-1.24-2.24l-9.45-6.62a1.46,1.46,0,0,0-1.7,0,7.61,7.61,0,0,0-1.73,1.76,1.3,1.3,0,0,1-.92.51,1.23,1.23,0,0,1-1-.38,28.18,28.18,0,0,1-7.79-22.56,1.28,1.28,0,0,1,.54-.9,1.21,1.21,0,0,1,1-.16,8.23,8.23,0,0,0,1.18.24,2.67,2.67,0,0,0,2.89-1.91l1.14-3.76-2.64-.54a1.25,1.25,0,1,1,.49-2.45l2.88.59L37,30.54A1.4,1.4,0,0,0,36.52,29h0a7.42,7.42,0,0,0-1.17-.71,8,8,0,0,0-10.49,3.33l-.2.38-.17.39,0,0a23,23,0,0,0-1,2.56l-.08.22c0,.06-2,5.62-2.09,9.06a39.54,39.54,0,0,0,4.49,19.85A33.54,33.54,0,0,0,40.32,78.41l0,0,.39.2a8,8,0,0,0,10.69-3.72ZM77.76,33a28.46,28.46,0,0,1-4.15,34.32A28.08,28.08,0,0,1,54,75.8h-.27l-.09.2a10.47,10.47,0,0,1-9.44,5.93,10.34,10.34,0,0,1-4.57-1.06l-.45-.23A36.13,36.13,0,0,1,23.56,65.3a42.14,42.14,0,0,1-4.78-21.11c.13-3.84,2.15-9.57,2.23-9.81l.08-.21a23.41,23.41,0,0,1,1.11-2.79c.07-.16.13-.31.21-.47s.16-.31.23-.46v0a10.46,10.46,0,0,1,12.67-4.84,7.7,7.7,0,0,1,.75-.66A28.24,28.24,0,0,1,70.84,25a1.25,1.25,0,0,1-1.53,2,25.48,25.48,0,0,0-14.68-5.48v2.28a1.25,1.25,0,0,1-2.49,0V21.53a25.37,25.37,0,0,0-14.42,5.28L38,27a3.89,3.89,0,0,1,1.45,4.28l-1.8,5.93h0l-1.54,5.08A5.15,5.15,0,0,1,30.5,46h-.08A25.68,25.68,0,0,0,36.69,64.1,10.18,10.18,0,0,1,38,63a3.93,3.93,0,0,1,4.6-.06L52,69.51a6,6,0,0,1,2.26,3.78A25.87,25.87,0,0,0,79.18,48.65H76.72a1.25,1.25,0,0,1,0-2.5h2.46a25.86,25.86,0,0,0-3.56-11.93A1.24,1.24,0,0,1,77.76,33Z"/></svg>