<svg id="Слой_1" data-name="Слой 1" xmlns="http://www.w3.org/2000/svg" viewBox="0 0 100 100"><defs><style>.cls-1{fill:#0153b8;}</style></defs><title>ic_100x100-free</title><path class="cls-1" d="M90.68,39.66l-3.42-21A6.5,6.5,0,0,0,82,13.31L60.61,9.58a6.51,6.51,0,0,0-5.72,1.8L11.48,54.8h0a6.5,6.5,0,0,0,0,9.19L36.22,88.74a6.52,6.52,0,0,0,9.2,0L88.86,45.3A6.55,6.55,0,0,0,90.68,39.66Zm-3.94,3.52L43.29,86.62a3.51,3.51,0,0,1-4.95,0L13.6,61.87a3.49,3.49,0,0,1,0-4.95L57,13.5a3.54,3.54,0,0,1,3.08-1l21.35,3.73a3.52,3.52,0,0,1,2.86,2.89l3.42,21A3.53,3.53,0,0,1,86.74,43.18Z"/><polygon class="cls-1" points="39.59 62.63 38.02 61.06 34.94 64.14 32.59 61.8 35.91 58.49 34.33 56.91 29.12 62.12 38.21 71.2 40.1 69.31 36.51 65.71 39.59 62.63"/><path class="cls-1" d="M46.57,53a3.81,3.81,0,0,0-3.92-3A6.37,6.37,0,0,0,39.23,52l-2.65,2.64,9.09,9.09,1.93-1.93-3.49-3.48,1-1,5.65,1.32,2.14-2.14q-1.51-.27-6.63-1.29A4.14,4.14,0,0,0,46.57,53Zm-2.36,1.52a3.45,3.45,0,0,1-1,1.65l-.63.62-2.45-2.45.58-.59a3.76,3.76,0,0,1,1.65-1.1,1.4,1.4,0,0,1,1.37.47A1.55,1.55,0,0,1,44.21,54.49Z"/><polygon class="cls-1" points="62.49 43.74 60.15 41.39 63.22 38.32 61.65 36.74 58.57 39.81 56.57 37.82 59.88 34.51 58.3 32.94 53.07 38.17 62.16 47.25 67.39 42.02 65.8 40.43 62.49 43.74"/><polygon class="cls-1" points="54.88 51.34 52.54 49 55.62 45.92 54.04 44.34 50.96 47.42 48.97 45.42 52.27 42.12 50.7 40.54 45.46 45.77 54.55 54.86 59.78 49.63 58.19 48.04 54.88 51.34"/><path class="cls-1" d="M72.64,21.78a6.5,6.5,0,1,0,4.6,1.91A6.46,6.46,0,0,0,72.64,21.78Zm2.47,9a3.59,3.59,0,0,1-5,0,3.5,3.5,0,1,1,5-5,3.49,3.49,0,0,1,0,5Z"/></svg>