<svg id="Слой_1" data-name="Слой 1" xmlns="http://www.w3.org/2000/svg" viewBox="0 0 100 100"><defs><style>.cls-1{fill:#0153b8;fill-rule:evenodd;}</style></defs><title>ic_100x100-charge</title><path class="cls-1" d="M27.13,48.06a1.24,1.24,0,1,1-1.76,1.76,1.24,1.24,0,1,1,1.76-1.76ZM59.45,52a1.25,1.25,0,0,1,0,2.5H41A1.25,1.25,0,0,1,41,52Zm0,7.49a1.25,1.25,0,0,1,0,2.5H41a1.25,1.25,0,0,1,0-2.5ZM54,67a1.25,1.25,0,1,1,0,2.49H41A1.25,1.25,0,0,1,41,67Zm6.33.36a1.26,1.26,0,0,1,.37.88,1.3,1.3,0,0,1-.37.89,1.25,1.25,0,0,1-2.13-.89,1.22,1.22,0,0,1,.37-.88,1.26,1.26,0,0,1,1.76,0ZM50.22,37.14a5.23,5.23,0,0,1,5.41,5,5.12,5.12,0,0,1-4.17,4.89v1a1.25,1.25,0,1,1-2.49,0v-1a5.12,5.12,0,0,1-4.17-4.89,1.25,1.25,0,0,1,2.5,0,2.94,2.94,0,1,0,2.92-2.53,5.24,5.24,0,0,1-5.42-5A5.13,5.13,0,0,1,49,29.71V28.48a1.25,1.25,0,0,1,2.49,0v1.23a5.13,5.13,0,0,1,4.17,4.89,1.25,1.25,0,0,1-2.5,0,2.94,2.94,0,0,0-5.83,0A2.75,2.75,0,0,0,50.22,37.14Zm24.41-20a1.23,1.23,0,0,1,.77,1.15V79.63a1.24,1.24,0,0,1-.77,1.15,1.29,1.29,0,0,1-.48.1,1.25,1.25,0,0,1-.88-.37L69.36,76.6l-3.91,3.91a1.23,1.23,0,0,1-1.76,0L59.78,76.6l-3.91,3.91a1.23,1.23,0,0,1-1.76,0L50.2,76.6l-3.91,3.91a1.23,1.23,0,0,1-1.76,0L40.62,76.6l-3.91,3.91a1.23,1.23,0,0,1-1.76,0L31,76.6l-3.91,3.91A1.25,1.25,0,0,1,25,79.63V54.43a1.25,1.25,0,0,1,2.5,0V76.62L30.16,74a1.23,1.23,0,0,1,1.76,0l3.91,3.9L39.74,74a1.23,1.23,0,0,1,1.76,0l3.91,3.9L49.32,74a1.24,1.24,0,0,1,1.76,0L55,77.86,58.9,74a1.23,1.23,0,0,1,1.76,0l3.91,3.9L68.48,74a1.22,1.22,0,0,1,.88-.37,1.26,1.26,0,0,1,.89.37l2.66,2.66V21.26l-2.66,2.66a1.3,1.3,0,0,1-.89.37,1.26,1.26,0,0,1-.88-.37L64.57,20l-3.91,3.91a1.23,1.23,0,0,1-1.76,0L55,20l-3.91,3.91a1.24,1.24,0,0,1-1.76,0L45.41,20,41.5,23.92a1.23,1.23,0,0,1-1.76,0L35.83,20l-3.91,3.91a1.23,1.23,0,0,1-1.76,0L27.5,21.26v21.5a1.25,1.25,0,0,1-2.5,0V18.25a1.25,1.25,0,0,1,2.13-.88L31,21.27,35,17.37a1.23,1.23,0,0,1,1.76,0l3.91,3.9,3.91-3.9a1.23,1.23,0,0,1,1.76,0l3.91,3.9,3.91-3.9a1.23,1.23,0,0,1,1.76,0l3.91,3.9,3.91-3.9a1.23,1.23,0,0,1,1.76,0l3.91,3.9,3.91-3.9A1.23,1.23,0,0,1,74.63,17.1Z"/></svg>