<svg id="Слой_1" data-name="Слой 1" xmlns="http://www.w3.org/2000/svg" viewBox="0 0 100 100"><defs><style>.cls-1{fill:#0153b8;fill-rule:evenodd;}</style></defs><title>ic_100x100-plane</title><path class="cls-1" d="M83.48,18.52c-2.71-2.71-8.15-1.74-13.54,2.42-2.32,1.79-3,2.72-11.15,10.83L53.88,31l2.25-2.25A4,4,0,0,0,50.41,23L44,29.37,21.75,25.74a4.55,4.55,0,0,0-3.39,8.17L40.57,50l-4.16,4.16A33.18,33.18,0,0,0,31.94,60L21.58,56.94a4.35,4.35,0,0,0-3.7,7.76l8.49,5.88C24.89,73.84,24,76.2,24,76.31a1.35,1.35,0,0,0,1.74,1.74c.11,0,2.47-.94,5.73-2.42l5.88,8.49a4.35,4.35,0,0,0,7.76-3.7L42,70.06a33.18,33.18,0,0,0,5.83-4.47L52,61.43,68.09,83.64a4.55,4.55,0,0,0,8.17-3.39L72.63,58,79,51.59a4,4,0,0,0-5.72-5.72L71,48.12l-.8-4.91c8.12-8.21,9-8.83,10.82-11.14h0C85.22,26.67,86.19,21.23,83.48,18.52ZM52.32,24.9a1.35,1.35,0,1,1,1.91,1.91L50.6,30.44l-3.28-.54ZM19.94,31.73a1.85,1.85,0,0,1-.23-2.81,1.89,1.89,0,0,1,1.61-.52l35.12,5.72-13.94,14Zm-.53,30.76a1.66,1.66,0,0,1,1.41-3l9.69,2.85c-1,1.73-2,3.65-3,5.72ZM42.47,81.18a1.66,1.66,0,0,1-3,1.41L33.9,74.48c2.07-1,4-2,5.72-3ZM75.19,47.77a1.35,1.35,0,0,1,1.91,1.91l-5,5-.54-3.28ZM73.6,80.68a1.88,1.88,0,0,1-.52,1.61,1.85,1.85,0,0,1-2.81-.23L53.93,59.5,67.88,45.56Zm5.08-50c-1.6,2,.08.07-32.74,33a34.42,34.42,0,0,1-6.45,4.76,101.66,101.66,0,0,1-11.82,5.89,97.92,97.92,0,0,1,6-12,33.7,33.7,0,0,1,4.63-6.24c32.92-32.84,31-31.14,33-32.74a6.58,6.58,0,0,1,7.4,7.4ZM81,27.18A8.93,8.93,0,0,0,74.82,21c2-1,5.24-2.1,6.75-.58C82.77,21.62,82.47,24.25,81,27.18Z"/><path class="cls-1" d="M56.88,43.36l-3.52,3.52a1.24,1.24,0,1,0,1.76,1.76l3.52-3.52a1.24,1.24,0,1,0-1.76-1.76Z"/><path class="cls-1" d="M63.88,36.36l-3.52,3.52a1.24,1.24,0,1,0,1.76,1.76l3.52-3.52a1.24,1.24,0,1,0-1.76-1.76Z"/></svg>