<?xml version="1.0" encoding="UTF-8"?>
<svg width="24px" height="24px" viewBox="0 0 24 24" version="1.1" xmlns="http://www.w3.org/2000/svg" xmlns:xlink="http://www.w3.org/1999/xlink">
    <!-- Generator: Sketch 52.4 (67378) - http://www.bohemiancoding.com/sketch -->
    <title>ic_google-plus</title>
    <desc>Created with Sketch.</desc>
    <g id="Page-1" stroke="none" stroke-width="1" fill="none" fill-rule="evenodd">
        <g id="01_homepage_mcparking" transform="translate(-1139.000000, -3777.000000)">
            <g id="footer" transform="translate(0.000000, 3389.000000)">
                <g id="Group-7">
                    <g id="Group-14" transform="translate(1139.000000, 227.000000)">
                        <g id="Stacked-Group" transform="translate(0.000000, 41.000000)">
                            <g id="ic_google-plus" transform="translate(0.000000, 120.000000)">
                                <path d="M11.9720548,0 C18.5566849,0 23.9441096,5.38742466 23.9441096,11.9720548 C23.9441096,18.5566849 18.5566849,23.9441096 11.9720548,23.9441096 C5.38742466,23.9441096 0,18.5566027 0,11.9720548 C0,5.38750685 5.38742466,0 11.9720548,0 Z" id="Path" fill="#95AAC4"></path>
                                <g id="Group" transform="translate(4.520548, 7.232877)" fill="#023574">
                                    <polygon id="Path" points="13.5123288 2.71882192 13.5123288 4.06569863 14.8591233 4.06569863 14.8591233 5.41257534 13.5123288 5.41257534 13.5123288 6.75945205 12.1654521 6.75945205 12.1654521 5.41257534 10.8185753 5.41257534 10.8185753 4.06569863 12.1654521 4.06569863 12.1654521 2.71882192"></polygon>
                                    <path d="M1.39060274,8.10624658 C-0.405205479,6.31043836 -0.405205479,3.16775342 1.46539726,1.3720274 C2.81227397,0.0251506849 4.75767123,-0.274109589 6.47868493,0.399287671 L7.15208219,0.773424658 L7.90035616,1.29723288 L6.70315068,2.49443836 L6.25421918,2.19517808 C5.20668493,1.52178082 3.71013699,1.67136986 2.73747945,2.64410959 C1.61506849,3.76652055 1.54027397,5.78679452 2.73747945,6.984 C3.85989041,8.18120548 5.88016438,8.18120548 6.92769863,6.984 C7.2269589,6.68473973 7.52630137,6.23572603 7.60109589,5.78679452 L7.60109589,5.63712329 L4.90742466,5.63712329 L4.90742466,4.14065753 L9.17243836,4.14065753 L9.24723288,4.51479452 L9.24723288,5.56232877 C9.17243836,6.53506849 8.79830137,7.50780822 8.12482192,8.18120548 C6.32909589,9.90205479 3.18641096,9.90205479 1.39060274,8.10624658 Z" id="Path"></path>
                                </g>
                            </g>
                        </g>
                    </g>
                </g>
            </g>
        </g>
    </g>
</svg>