<?xml version="1.0" encoding="UTF-8"?>
<svg width="24px" height="24px" viewBox="0 0 24 24" version="1.1" xmlns="http://www.w3.org/2000/svg" xmlns:xlink="http://www.w3.org/1999/xlink">
    <!-- Generator: Sketch 52.4 (67378) - http://www.bohemiancoding.com/sketch -->
    <title>ic_linkedin</title>
    <desc>Created with Sketch.</desc>
    <g id="Page-1" stroke="none" stroke-width="1" fill="none" fill-rule="evenodd">
        <g id="01_homepage_mcparking" transform="translate(-1139.000000, -3737.000000)">
            <g id="footer" transform="translate(0.000000, 3389.000000)">
                <g id="Group-7">
                    <g id="Group-14" transform="translate(1139.000000, 227.000000)">
                        <g id="Stacked-Group" transform="translate(0.000000, 41.000000)">
                            <g id="ic_linkedin" transform="translate(0.000000, 80.000000)">
                                <path d="M11.9719726,0 C18.5843014,0 23.9440274,5.36046575 23.9440274,11.9720548 C23.9440274,18.5836438 18.5843014,23.9440274 11.9719726,23.9440274 C5.35964384,23.9440274 0,18.5835616 0,11.9720548 C0,5.36054795 5.35972603,0 11.9719726,0 Z" id="Path" fill="#95AAC4"></path>
                                <path d="M6.74621918,16.4495342 L8.988,16.4495342 L8.988,8.97747945 L6.74621918,8.97747945 L6.74621918,16.4495342 Z M15.4798356,8.71865753 C14.391863,8.71865753 13.4183836,9.1159726 12.7278082,9.9929589 L12.7278082,8.95290411 L10.4778082,8.95290411 L10.4778082,16.4496164 L12.7278082,16.4496164 L12.7278082,12.395589 C12.7278082,11.5388219 13.5127397,10.7030137 14.4959178,10.7030137 C15.4790959,10.7030137 15.7215616,11.5388219 15.7215616,12.3746301 L15.7215616,16.4488767 L17.9633425,16.4488767 L17.9633425,12.2077808 C17.9632603,9.26186301 16.5685479,8.71865753 15.4798356,8.71865753 Z M7.85663014,8.23076712 C8.47619178,8.23076712 8.9790411,7.72791781 8.9790411,7.10835616 C8.9790411,6.48879452 8.47619178,5.9860274 7.85663014,5.9860274 C7.23706849,5.9860274 6.73421918,6.48887671 6.73421918,7.10843836 C6.73421918,7.728 7.23706849,8.23076712 7.85663014,8.23076712 Z" id="Shape" fill="#023574" fill-rule="nonzero"></path>
                            </g>
                        </g>
                    </g>
                </g>
            </g>
        </g>
    </g>
</svg>