<?xml version="1.0" encoding="UTF-8"?>
<svg width="24px" height="24px" viewBox="0 0 24 24" version="1.1" xmlns="http://www.w3.org/2000/svg" xmlns:xlink="http://www.w3.org/1999/xlink">
    <!-- Generator: Sketch 52.4 (67378) - http://www.bohemiancoding.com/sketch -->
    <title>ic_twitter</title>
    <desc>Created with Sketch.</desc>
    <g id="Page-1" stroke="none" stroke-width="1" fill="none" fill-rule="evenodd">
        <g id="01_homepage_mcparking" transform="translate(-1139.000000, -3697.000000)">
            <g id="footer" transform="translate(0.000000, 3389.000000)">
                <g id="Group-7">
                    <g id="Group-14" transform="translate(1139.000000, 227.000000)">
                        <g id="Stacked-Group" transform="translate(0.000000, 41.000000)">
                            <g id="ic_twitter" transform="translate(0.000000, 40.000000)">
                                <path d="M11.9719726,0 C18.5843014,0 23.9440274,5.36046575 23.9440274,11.9720548 C23.9440274,18.5843836 18.5843014,23.9440274 11.9719726,23.9440274 C5.35964384,23.9440274 0,18.5843014 0,11.9720548 C0,5.36046575 5.35972603,0 11.9719726,0 Z" id="Path" fill="#95AAC4"></path>
                                <path d="M19.4567671,8.06539726 C18.9337808,8.29134247 18.3710137,8.44323288 17.7807123,8.51210959 C18.3838356,8.16115068 18.8462466,7.60668493 19.0639726,6.94454795 C18.4998082,7.2700274 17.875726,7.50575342 17.2105479,7.63216438 C16.6785205,7.08221918 15.9205479,6.73873973 15.0810411,6.73873973 C13.4708219,6.73873973 12.1643836,8.00556164 12.1643836,9.56934247 C12.1643836,9.79158904 12.189863,10.0078356 12.2399178,10.2151233 C9.81558904,10.0969315 7.66512329,8.96926027 6.2270137,7.25654795 C5.97558904,7.67482192 5.83191781,8.16041096 5.83191781,8.67969863 C5.83191781,9.66139726 6.34668493,10.5293425 7.12939726,11.0359726 C6.65054795,11.0210137 6.20153425,10.8945205 5.80726027,10.6813151 L5.80726027,10.7172329 C5.80726027,12.0895068 6.81287671,13.2336164 8.14775342,13.494 C7.90306849,13.5583562 7.64564384,13.5935342 7.37926027,13.5935342 C7.19145205,13.5935342 7.00890411,13.5763562 6.83079452,13.5426575 C7.20189041,14.6680274 8.27942466,15.4865753 9.55668493,15.5090959 C8.55780822,16.2692877 7.29994521,16.7212603 5.93293151,16.7212603 C5.69720548,16.7212603 5.46526027,16.7077808 5.23627397,16.6816438 C6.52849315,17.4852329 8.0609589,17.9543836 9.70931507,17.9543836 C15.0757808,17.9543836 18.0104384,13.6384932 18.0104384,9.89720548 L18.0022192,9.53054795 C18.5708219,9.13241096 19.0654521,8.63408219 19.4567671,8.06539726 Z" id="Path" fill="#023574"></path>
                            </g>
                        </g>
                    </g>
                </g>
            </g>
        </g>
    </g>
</svg>