<svg xmlns="http://www.w3.org/2000/svg" width="59.719" height="60" viewBox="0 0 59.719 60">
  <defs>
    <style>
      .cls-1 {
        fill: #8ec723;
        fill-rule: evenodd;
      }
    </style>
  </defs>
  <path id="_" data-name="" class="cls-1" d="M30.73,20.833a9.98,9.98,0,0,0-9.955,10,9.98,9.98,0,0,0,9.955,10,9.98,9.98,0,0,0,9.955-10A9.98,9.98,0,0,0,30.73,20.833Zm0,25a14.353,14.353,0,0,1-10.557-4.395A14.485,14.485,0,0,1,15.8,30.833a14.485,14.485,0,0,1,4.374-10.605A14.354,14.354,0,0,1,30.73,15.833a14.353,14.353,0,0,1,10.557,4.395,14.485,14.485,0,0,1,4.375,10.605,14.485,14.485,0,0,1-4.375,10.606A14.353,14.353,0,0,1,30.73,45.833Zm0-35a19.137,19.137,0,0,0-14.076,5.859,19.314,19.314,0,0,0-5.833,14.141,19.313,19.313,0,0,0,5.833,14.141A19.137,19.137,0,0,0,30.73,50.833a19.138,19.138,0,0,0,14.076-5.859,19.313,19.313,0,0,0,5.833-14.141,19.314,19.314,0,0,0-5.833-14.141A19.138,19.138,0,0,0,30.73,10.833Zm17.6,37.676a25.124,25.124,0,0,1-7.933,5.332,24.43,24.43,0,0,1-19.326,0,24.6,24.6,0,0,1-13.24-13.3,24.749,24.749,0,0,1,0-19.414,24.6,24.6,0,0,1,13.24-13.3,24.431,24.431,0,0,1,19.326,0,24.6,24.6,0,0,1,13.24,13.3,24.749,24.749,0,0,1,0,19.414A25.254,25.254,0,0,1,48.325,48.509ZM45.72,4.857A29.117,29.117,0,0,0,30.73.833,29.114,29.114,0,0,0,15.74,4.857,29.8,29.8,0,0,0,4.872,15.775,29.449,29.449,0,0,0,.866,30.833,29.446,29.446,0,0,0,4.872,45.892,29.789,29.789,0,0,0,15.74,56.81a29.113,29.113,0,0,0,14.99,4.023A29.116,29.116,0,0,0,45.72,56.81,29.8,29.8,0,0,0,56.588,45.892a29.452,29.452,0,0,0,4.005-15.059,29.455,29.455,0,0,0-4.005-15.059A29.807,29.807,0,0,0,45.72,4.857Z" transform="translate(-0.875 -0.844)"/>
</svg>
