<?xml version="1.0" encoding="UTF-8"?>
<svg width="163px" height="28px" viewBox="0 0 163 28" version="1.1" xmlns="http://www.w3.org/2000/svg" xmlns:xlink="http://www.w3.org/1999/xlink">
    <!-- Generator: Sketch 52.4 (67378) - http://www.bohemiancoding.com/sketch -->
    <title>logotypes/McParking</title>
    <desc>Created with Sketch.</desc>
    <g id="Page-1" stroke="none" stroke-width="1" fill="none" fill-rule="evenodd">
        <g id="01_homepage_mcparking" transform="translate(-138.000000, -18.000000)">
            <g id="header">
                <g id="logotypes/McParking" transform="translate(138.000000, 18.000000)">
                    <g id="McParking_Logo_Standart_RGB">
                        <path d="M45.0575605,22.3647407 L51.1383949,22.3647407 L51.1383949,16.4017778 L54.7316624,16.4017778 C59.2645159,16.4017778 62.4705287,14.1648889 62.4705287,9.38933333 C62.4705287,6.57274074 60.5913567,2.65274074 55.2289682,2.65274074 L45.0575605,2.65274074 L45.0575605,22.3647407 Z M51.1383949,7.70518519 L53.8471019,7.70518519 C55.3400573,7.70518519 56.7219236,7.81511111 56.7219236,9.61022222 C56.7219236,11.5971852 55.0638917,11.7081481 53.487879,11.7081481 L51.1383949,11.7081481 L51.1383949,7.70518519 Z M72.6139045,17.2573333 C72.5318854,18.7475556 71.5642675,19.4931852 70.3204841,19.4931852 C69.3248344,19.4931852 68.6063885,18.8305185 68.6063885,18.1688889 C68.6063885,17.2023704 69.2417771,16.8985185 70.4585669,16.6226667 C71.2050446,16.4567407 71.9504841,16.2638519 72.6139045,15.932 L72.6139045,17.2573333 Z M77.866242,13.2813333 C77.866242,10.5207407 77.9212675,7.67718519 71.0669618,7.67718519 C69.3808981,7.67718519 67.5567516,7.84311111 66.1738471,8.50577778 C64.7649873,9.16844444 63.7693376,10.3548148 63.6862803,12.3708148 L68.7725032,12.3708148 C68.800535,11.7631111 69.1317261,10.9075556 70.8177898,10.9075556 C71.7023503,10.9075556 72.6139045,11.2663704 72.6139045,12.2328889 C72.6139045,13.1434074 71.868465,13.3642963 71.1219873,13.5022222 C68.3302229,14.026963 63.0238981,13.861037 63.0238981,18.3887407 C63.0238981,21.3982222 65.3173185,22.7235556 68.081051,22.7235556 C69.850172,22.7235556 71.5362357,22.3367407 72.6969618,21.0114074 L72.7519873,21.0114074 C72.7249936,21.3982222 72.808051,21.9779259 72.9461338,22.3647407 L78.5286242,22.3647407 C77.9212675,21.4542222 77.866242,20.2388148 77.866242,19.1623704 L77.866242,13.2813333 Z M81.3203885,22.3647407 L86.792828,22.3647407 L86.792828,16.7045926 C86.792828,13.6401481 87.9535541,12.3708148 90.1099299,12.3708148 C91.2156306,12.3708148 91.7129363,12.5367407 92.2652675,12.7296296 L92.2652675,7.89807407 C91.7409682,7.76014815 91.2156306,7.67718519 90.6622611,7.67718519 C88.6730382,7.67718519 87.5112739,8.6157037 86.6277516,10.3278519 L86.5716879,10.3278519 L86.5716879,8.036 L81.3203885,8.036 L81.3203885,22.3647407 Z M94.2555287,22.3647407 L99.7279682,22.3647407 L99.7279682,18.2238519 L100.695586,17.1743704 L103.625433,22.3647407 L110.203573,22.3647407 L104.288854,13.4472593 L109.40207,8.036 L103.210146,8.036 L99.7279682,12.1779259 L99.7279682,2.65274074 L94.2555287,2.65274074 L94.2555287,22.3647407 Z M112.247822,22.3647407 L117.721299,22.3647407 L117.721299,8.036 L112.247822,8.036 L112.247822,22.3647407 Z M112.247822,6.48977778 L117.721299,6.48977778 L117.721299,2.6517037 L112.247822,2.6517037 L112.247822,6.48977778 Z M121.396586,22.3647407 L126.869025,22.3647407 L126.869025,14.8005926 C126.869025,12.5087407 128.112809,12.038963 129.052395,12.038963 C130.655401,12.038963 130.849548,13.1994074 130.849548,14.8555556 L130.849548,22.3647407 L136.321987,22.3647407 L136.321987,12.5367407 C136.321987,9.25140741 133.972503,7.67718519 131.401879,7.67718519 C129.21851,7.67718519 127.753586,8.42281481 126.730943,9.85807407 L126.675917,9.85807407 L126.675917,8.036 L121.396586,8.036 L121.396586,22.3647407 Z M144.448108,14.4967407 C144.448108,12.9774815 145.22158,11.6531852 146.769561,11.6531852 C148.372567,11.6531852 149.146038,12.8955556 149.146038,14.4687407 C149.146038,16.0699259 148.924898,18.002963 146.907643,18.002963 C144.945414,18.002963 144.448108,16.1248889 144.448108,14.4967407 Z M154.480395,8.036 L149.007955,8.036 L149.007955,9.77511111 L148.95293,9.77511111 C148.317541,8.31185185 146.796554,7.67718519 145.193548,7.67718519 C141.102975,7.67718519 138.974631,10.7965926 138.974631,14.5237037 C138.974631,18.3617778 140.881834,21.5091852 145.111529,21.5091852 C146.741529,21.5091852 148.068369,20.7915556 148.95293,19.5211852 L149.007955,19.5211852 L149.007955,20.8465185 C149.007955,22.0339259 148.621739,24.1318519 146.852618,24.1318519 C146.161166,24.1318519 145.580803,23.5791111 145.249611,23.0823704 C145.138522,22.9164444 145.000439,22.7235556 144.945414,22.5856296 L139.528,22.5856296 C140.025306,26.4506667 143.618573,27.3622222 147.017694,27.3622222 C153.734955,27.3622222 154.480395,23.3582222 154.480395,20.5146667 L154.480395,8.036 Z M159.042318,3.81111111 C159.190783,3.81111111 159.330943,3.80592593 159.463834,3.79659259 C159.595688,3.78622222 159.714045,3.75925926 159.816828,3.71362963 C159.92065,3.66903704 160.002669,3.59955556 160.063924,3.50622222 C160.125178,3.41288889 160.156325,3.28222222 160.156325,3.11422222 C160.156325,2.97214815 160.128293,2.85911111 160.074306,2.77614815 C160.01928,2.69214815 159.947643,2.62785185 159.860433,2.58222222 C159.773223,2.53762963 159.673554,2.50651852 159.560389,2.48992593 C159.447223,2.47437037 159.336134,2.46607407 159.226083,2.46607407 L158.355019,2.46607407 L158.355019,3.81111111 L159.042318,3.81111111 Z M159.333019,1.93407407 C159.836554,1.93407407 160.209274,2.03466667 160.451178,2.23377778 C160.694121,2.43392593 160.814554,2.73674074 160.814554,3.14325926 C160.814554,3.52385185 160.708656,3.80281481 160.494783,3.98014815 C160.281949,4.15748148 160.017204,4.26222222 159.700548,4.29437037 L160.911108,6.16103704 L160.204083,6.16103704 L159.051662,4.34311111 L158.355019,4.34311111 L158.355019,6.16103704 L157.69679,6.16103704 L157.69679,1.93407407 L159.333019,1.93407407 Z M156.345032,5.26711111 C156.496611,5.64355556 156.706331,5.97125926 156.975229,6.24814815 C157.243089,6.52607407 157.558707,6.74385185 157.924159,6.90148148 C158.288573,7.05911111 158.684134,7.13896296 159.109803,7.13896296 C159.53028,7.13896296 159.92065,7.05911111 160.281949,6.90148148 C160.643248,6.74385185 160.957828,6.52607407 161.226726,6.24814815 C161.494586,5.97125926 161.704306,5.64355556 161.855885,5.26711111 C162.007465,4.88962963 162.083255,4.47792593 162.083255,4.03303704 C162.083255,3.60162963 162.007465,3.19822222 161.855885,2.82385185 C161.704306,2.45051852 161.494586,2.12592593 161.226726,1.85214815 C160.957828,1.57837037 160.643248,1.36162963 160.281949,1.204 C159.92065,1.04533333 159.53028,0.966518519 159.109803,0.966518519 C158.684134,0.966518519 158.288573,1.04533333 157.924159,1.204 C157.558707,1.36162963 157.243089,1.57837037 156.975229,1.85214815 C156.706331,2.12592593 156.496611,2.45051852 156.345032,2.82385185 C156.193452,3.19822222 156.117662,3.60162963 156.117662,4.03303704 C156.117662,4.47792593 156.193452,4.88962963 156.345032,5.26711111 Z M155.750134,2.61125926 C155.943242,2.17259259 156.205911,1.792 156.539178,1.46948148 C156.871408,1.14696296 157.258662,0.893925926 157.700943,0.71037037 C158.143223,0.526814815 158.613535,0.434518519 159.109803,0.434518519 C159.607108,0.434518519 160.075344,0.526814815 160.51451,0.71037037 C160.953675,0.893925926 161.337815,1.14696296 161.66693,1.46948148 C161.996045,1.792 162.257675,2.17259259 162.451822,2.61125926 C162.64493,3.04992593 162.741484,3.52385185 162.741484,4.03303704 C162.741484,4.5557037 162.64493,5.03792593 162.451822,5.4797037 C162.257675,5.92148148 161.996045,6.30518519 161.66693,6.63081481 C161.337815,6.95644444 160.953675,7.20948148 160.51451,7.38992593 C160.075344,7.57037037 159.607108,7.66059259 159.109803,7.66059259 C158.613535,7.66059259 158.143223,7.57037037 157.700943,7.38992593 C157.258662,7.20948148 156.871408,6.95644444 156.539178,6.63081481 C156.205911,6.30518519 155.943242,5.92148148 155.750134,5.4797037 C155.555987,5.03792593 155.459433,4.5557037 155.459433,4.03303704 C155.459433,3.52385185 155.555987,3.04992593 155.750134,2.61125926 Z" id="Fill-2" fill="#FFFFFF"></path>
                        <path d="M0.945815287,22.3647407 L6.6954586,22.3647407 L6.6954586,9.72014815 L6.75048408,9.72014815 L10.1776369,22.3647407 L14.7104904,22.3647407 L18.1376433,9.72014815 L18.1926688,9.72014815 L18.1926688,22.3647407 L23.9423121,22.3647407 L23.9423121,2.65274074 L15.2908535,2.65274074 L12.4720955,14.2478519 L12.4160318,14.2478519 L9.59727389,2.65274074 L0.945815287,2.65274074 L0.945815287,22.3647407 Z M41.4372994,13.4752593 C41.1061083,9.52725926 37.9000955,7.67718519 34.1407134,7.67718519 C29.829,7.67718519 26.3738153,10.6866667 26.3738153,15.2143704 C26.3738153,19.7420741 29.829,22.7235556 34.1407134,22.7235556 C36.0749108,22.7235556 37.8170382,22.1718519 39.1158471,21.1503704 C40.4426879,20.1008889 41.354242,18.5826667 41.603414,16.6496296 L36.3791083,16.6496296 C36.2690573,17.7820741 35.4395223,18.7475556 34.2507643,18.7475556 C32.1504522,18.7475556 31.8462548,16.9534815 31.8462548,15.2143704 C31.8462548,13.4752593 32.1504522,11.6531852 34.2507643,11.6531852 C34.8311274,11.6531852 35.3014395,11.8180741 35.6336688,12.1219259 C35.9928917,12.4257778 36.186,12.8955556 36.2410255,13.4752593 L41.4372994,13.4752593 Z" id="Fill-3" fill="#FFCC00"></path>
                    </g>
                </g>
            </g>
        </g>
    </g>
</svg>